<svg xmlns="http://www.w3.org/2000/svg" width="212.44" height="35" viewBox="0 0 212.44 35"><rect class="svg__rect" x="0" y="0" width="127.25" height="35" fill="#A7BFC1"/><rect class="svg__rect" x="125.25" y="0" width="87.19" height="35" fill="#5D9741"/><path class="svg__text" d="M15.70 22L14.22 22L14.22 13.47L17.48 13.47Q18.91 13.47 19.75 14.21Q20.59 14.96 20.59 16.18L20.59 16.18Q20.59 17.44 19.77 18.13Q18.95 18.83 17.46 18.83L17.46 18.83L15.70 18.83L15.70 22ZM15.70 14.66L15.70 17.64L17.48 17.64Q18.27 17.64 18.69 17.27Q19.10 16.90 19.10 16.19L19.10 16.19Q19.10 15.50 18.68 15.09Q18.26 14.68 17.52 14.66L17.52 14.66L15.70 14.66ZM24.61 18.00L24.61 18.00L24.61 17.52Q24.61 16.28 25.05 15.32Q25.49 14.37 26.30 13.86Q27.10 13.35 28.14 13.35Q29.19 13.35 29.99 13.85Q30.80 14.35 31.24 15.29Q31.68 16.23 31.68 17.48L31.68 17.48L31.68 17.96Q31.68 19.21 31.25 20.16Q30.82 21.10 30.01 21.61Q29.21 22.12 28.16 22.12L28.16 22.12Q27.12 22.12 26.31 21.61Q25.50 21.10 25.05 20.17Q24.61 19.23 24.61 18.00ZM26.09 17.46L26.09 17.96Q26.09 19.36 26.64 20.13Q27.18 20.90 28.16 20.90L28.16 20.90Q29.14 20.90 29.67 20.15Q30.20 19.40 30.20 17.96L30.20 17.96L30.20 17.51Q30.20 16.09 29.67 15.34Q29.13 14.58 28.14 14.58L28.14 14.58Q27.18 14.58 26.64 15.33Q26.10 16.09 26.09 17.46L26.09 17.46ZM37.53 22L35.56 13.47L37.03 13.47L38.36 19.88L39.99 13.47L41.23 13.47L42.84 19.89L44.15 13.47L45.62 13.47L43.65 22L42.24 22L40.61 15.77L38.96 22L37.53 22ZM55.27 22L49.70 22L49.70 13.47L55.23 13.47L55.23 14.66L51.18 14.66L51.18 17.02L54.68 17.02L54.68 18.19L51.18 18.19L51.18 20.82L55.27 20.82L55.27 22ZM60.95 22L59.47 22L59.47 13.47L62.47 13.47Q63.95 13.47 64.75 14.13Q65.55 14.79 65.55 16.05L65.55 16.05Q65.55 16.90 65.14 17.48Q64.72 18.06 63.99 18.37L63.99 18.37L65.90 21.92L65.90 22L64.31 22L62.60 18.71L60.95 18.71L60.95 22ZM60.95 14.66L60.95 17.52L62.48 17.52Q63.23 17.52 63.65 17.15Q64.07 16.77 64.07 16.11L64.07 16.11Q64.07 15.43 63.68 15.05Q63.29 14.68 62.52 14.66L62.52 14.66L60.95 14.66ZM75.52 22L69.95 22L69.95 13.47L75.48 13.47L75.48 14.66L71.43 14.66L71.43 17.02L74.93 17.02L74.93 18.19L71.43 18.19L71.43 20.82L75.52 20.82L75.52 22ZM82.17 22L79.72 22L79.72 13.47L82.24 13.47Q83.37 13.47 84.25 13.97Q85.12 14.48 85.60 15.40Q86.08 16.33 86.08 17.52L86.08 17.52L86.08 17.95Q86.08 19.16 85.60 20.08Q85.12 21.00 84.22 21.50Q83.33 22 82.17 22L82.17 22ZM81.20 14.66L81.20 20.82L82.17 20.82Q83.33 20.82 83.96 20.09Q84.58 19.36 84.59 17.99L84.59 17.99L84.59 17.52Q84.59 16.13 83.99 15.40Q83.39 14.66 82.24 14.66L82.24 14.66L81.20 14.66ZM99.64 22L96.52 22L96.52 13.47L99.45 13.47Q100.89 13.47 101.65 14.05Q102.41 14.63 102.41 15.78L102.41 15.78Q102.41 16.36 102.09 16.83Q101.77 17.30 101.16 17.56L101.16 17.56Q101.86 17.75 102.23 18.26Q102.61 18.78 102.61 19.51L102.61 19.51Q102.61 20.71 101.84 21.36Q101.07 22 99.64 22L99.64 22ZM98.01 18.15L98.01 20.82L99.65 20.82Q100.35 20.82 100.74 20.47Q101.14 20.13 101.14 19.51L101.14 19.51Q101.14 18.18 99.78 18.15L99.78 18.15L98.01 18.15ZM98.01 14.66L98.01 17.06L99.46 17.06Q100.15 17.06 100.54 16.75Q100.93 16.43 100.93 15.86L100.93 15.86Q100.93 15.23 100.57 14.95Q100.21 14.66 99.45 14.66L99.45 14.66L98.01 14.66ZM109.12 18.86L106.26 13.47L107.90 13.47L109.87 17.51L111.83 13.47L113.47 13.47L110.61 18.86L110.61 22L109.12 22L109.12 18.86Z" fill="#FFFFFF"/><path class="svg__text" d="M141.82 22L139.44 22L139.44 13.60L141.82 13.60L141.82 22ZM146.40 21.24L146.40 21.24L147.18 19.49Q147.75 19.86 148.49 20.09Q149.23 20.32 149.96 20.32L149.96 20.32Q151.32 20.32 151.33 19.64L151.33 19.64Q151.33 19.28 150.94 19.11Q150.55 18.93 149.68 18.74L149.68 18.74Q148.73 18.53 148.10 18.30Q147.46 18.06 147.01 17.55Q146.55 17.03 146.55 16.16L146.55 16.16Q146.55 15.39 146.97 14.77Q147.39 14.15 148.22 13.79Q149.06 13.43 150.27 13.43L150.27 13.43Q151.09 13.43 151.90 13.62Q152.70 13.80 153.32 14.17L153.32 14.17L152.59 15.93Q151.39 15.28 150.25 15.28L150.25 15.28Q149.55 15.28 149.22 15.49Q148.90 15.70 148.90 16.04L148.90 16.04Q148.90 16.37 149.28 16.54Q149.67 16.71 150.52 16.89L150.52 16.89Q151.48 17.10 152.11 17.33Q152.74 17.56 153.20 18.07Q153.66 18.58 153.66 19.46L153.66 19.46Q153.66 20.21 153.25 20.83Q152.83 21.44 151.99 21.80Q151.14 22.17 149.94 22.17L149.94 22.17Q148.92 22.17 147.96 21.92Q147.00 21.67 146.40 21.24ZM157.65 21.24L157.65 21.24L158.43 19.49Q159.00 19.86 159.74 20.09Q160.48 20.32 161.21 20.32L161.21 20.32Q162.57 20.32 162.58 19.64L162.58 19.64Q162.58 19.28 162.19 19.11Q161.80 18.93 160.93 18.74L160.93 18.74Q159.98 18.53 159.35 18.30Q158.71 18.06 158.26 17.55Q157.80 17.03 157.80 16.16L157.80 16.16Q157.80 15.39 158.22 14.77Q158.64 14.15 159.47 13.79Q160.31 13.43 161.52 13.43L161.52 13.43Q162.34 13.43 163.15 13.62Q163.95 13.80 164.57 14.17L164.57 14.17L163.84 15.93Q162.64 15.28 161.50 15.28L161.50 15.28Q160.80 15.28 160.47 15.49Q160.15 15.70 160.15 16.04L160.15 16.04Q160.15 16.37 160.53 16.54Q160.92 16.71 161.77 16.89L161.77 16.89Q162.73 17.10 163.36 17.33Q163.99 17.56 164.45 18.07Q164.91 18.58 164.91 19.46L164.91 19.46Q164.91 20.21 164.50 20.83Q164.08 21.44 163.24 21.80Q162.39 22.17 161.19 22.17L161.19 22.17Q160.17 22.17 159.21 21.92Q158.25 21.67 157.65 21.24ZM169.42 18.26L169.42 18.26L169.42 13.60L171.80 13.60L171.80 18.19Q171.80 20.20 173.39 20.20L173.39 20.20Q174.97 20.20 174.97 18.19L174.97 18.19L174.97 13.60L177.32 13.60L177.32 18.26Q177.32 20.13 176.28 21.15Q175.24 22.17 173.37 22.17L173.37 22.17Q171.49 22.17 170.46 21.15Q169.42 20.13 169.42 18.26ZM189.15 22L182.40 22L182.40 13.60L189.00 13.60L189.00 15.44L184.76 15.44L184.76 16.85L188.49 16.85L188.49 18.63L184.76 18.63L184.76 20.17L189.15 20.17L189.15 22ZM193.37 21.24L193.37 21.24L194.15 19.49Q194.71 19.86 195.45 20.09Q196.20 20.32 196.92 20.32L196.92 20.32Q198.28 20.32 198.29 19.64L198.29 19.64Q198.29 19.28 197.90 19.11Q197.51 18.93 196.64 18.74L196.64 18.74Q195.69 18.53 195.06 18.30Q194.42 18.06 193.97 17.55Q193.51 17.03 193.51 16.16L193.51 16.16Q193.51 15.39 193.93 14.77Q194.35 14.15 195.19 13.79Q196.02 13.43 197.23 13.43L197.23 13.43Q198.06 13.43 198.86 13.62Q199.67 13.80 200.28 14.17L200.28 14.17L199.55 15.93Q198.35 15.28 197.22 15.28L197.22 15.28Q196.51 15.28 196.19 15.49Q195.86 15.70 195.86 16.04L195.86 16.04Q195.86 16.37 196.25 16.54Q196.63 16.71 197.48 16.89L197.48 16.89Q198.44 17.10 199.07 17.33Q199.70 17.56 200.16 18.07Q200.63 18.58 200.63 19.46L200.63 19.46Q200.63 20.21 200.21 20.83Q199.79 21.44 198.95 21.80Q198.11 22.17 196.91 22.17L196.91 22.17Q195.89 22.17 194.93 21.92Q193.97 21.67 193.37 21.24Z" fill="#FFFFFF" x="138.25"/></svg>