<?xml version="1.0" encoding="UTF-8"?>
<svg xmlns="http://www.w3.org/2000/svg" xmlns:xlink="http://www.w3.org/1999/xlink" width="90px" height="81px" viewBox="0 0 90 81" version="1.1">
<defs>
<clipPath id="clip2">
  <rect x="0" y="0" width="90" height="81"/>
</clipPath>
<g id="surface6" clip-path="url(#clip2)">
<path style=" stroke:none;fill-rule:nonzero;fill:rgb(22.352941%,27.450982%,33.333334%);fill-opacity:1;" d="M 20.140625 47.410156 C 20.238281 49.3125 20.289062 51.203125 20.386719 53.054688 C 20.484375 54.90625 20.628906 56.71875 20.917969 58.464844 C 21.207031 60.210938 21.640625 61.890625 22.316406 63.476562 C 22.988281 65.0625 23.902344 66.550781 25.144531 67.921875 C 26.714844 69.648438 28.855469 71.042969 31.390625 72.074219 C 33.929688 73.105469 36.867188 73.769531 40.039062 74.039062 C 43.210938 74.304688 46.621094 74.171875 50.09375 73.59375 C 53.5625 73.015625 57.097656 71.992188 60.503906 70.472656 C 61.488281 70.03125 62.480469 69.371094 63.425781 68.574219 C 64.371094 67.78125 65.269531 66.847656 66.0625 65.859375 C 66.855469 64.875 67.546875 63.832031 68.078125 62.820312 C 68.613281 61.808594 68.984375 60.824219 69.144531 59.953125 C 69.472656 58.125 69.570312 56.472656 69.546875 54.917969 C 69.519531 53.359375 69.371094 51.902344 69.210938 50.460938 C 69.050781 49.019531 68.878906 47.601562 68.800781 46.121094 C 68.722656 44.640625 68.738281 43.105469 68.960938 41.429688 C 69.136719 40.09375 69.332031 38.800781 69.519531 37.507812 C 69.703125 36.210938 69.875 34.914062 70 33.566406 C 70.121094 32.21875 70.199219 30.824219 70.1875 29.332031 C 70.175781 27.839844 70.082031 26.257812 69.867188 24.53125 C 69.71875 23.371094 69.496094 22.125 69.171875 20.863281 C 68.847656 19.597656 68.425781 18.320312 67.890625 17.101562 C 67.355469 15.882812 66.703125 14.722656 65.921875 13.695312 C 65.140625 12.671875 64.226562 11.78125 63.164062 11.101562 C 61.773438 10.214844 60.464844 9.457031 59.183594 8.832031 C 57.902344 8.203125 56.644531 7.710938 55.363281 7.34375 C 54.082031 6.976562 52.769531 6.738281 51.382812 6.628906 C 49.992188 6.515625 48.527344 6.53125 46.929688 6.671875 C 44.660156 6.871094 42.402344 7.074219 40.203125 7.355469 C 38.003906 7.640625 35.859375 8.003906 33.824219 8.523438 C 31.789062 9.039062 29.855469 9.710938 28.078125 10.613281 C 26.300781 11.515625 24.675781 12.648438 23.257812 14.078125 C 22.246094 15.101562 21.410156 16.273438 20.734375 17.558594 C 20.0625 18.839844 19.546875 20.226562 19.179688 21.679688 C 18.808594 23.132812 18.582031 24.652344 18.484375 26.191406 C 18.386719 27.730469 18.414062 29.289062 18.554688 30.828125 C 18.65625 31.945312 18.765625 33.035156 18.875 34.09375 C 18.984375 35.15625 19.097656 36.1875 19.207031 37.199219 C 19.316406 38.207031 19.421875 39.191406 19.523438 40.152344 C 19.628906 41.113281 19.722656 42.054688 19.808594 42.972656 C 19.84375 43.355469 19.878906 43.734375 19.910156 44.109375 C 19.941406 44.488281 19.972656 44.859375 20 45.230469 C 20.027344 45.597656 20.054688 45.964844 20.078125 46.328125 C 20.101562 46.691406 20.121094 47.050781 20.140625 47.410156 Z M 20.140625 47.410156 "/>
<path style=" stroke:none;fill-rule:nonzero;fill:rgb(58.823532%,83.92157%,100%);fill-opacity:1;" d="M 21.199219 54.445312 C 21.292969 56.199219 21.515625 57.945312 21.925781 59.625 C 22.335938 61.304688 22.933594 62.917969 23.761719 64.410156 C 24.589844 65.898438 25.652344 67.261719 27 68.441406 C 28.34375 69.621094 29.96875 70.617188 31.925781 71.371094 C 33.738281 72.070312 35.800781 72.589844 38.03125 72.90625 C 40.261719 73.222656 42.660156 73.335938 45.140625 73.222656 C 47.621094 73.105469 50.183594 72.765625 52.742188 72.164062 C 55.304688 71.5625 57.855469 70.703125 60.308594 69.554688 C 61.242188 69.117188 62.183594 68.464844 63.074219 67.679688 C 63.964844 66.898438 64.808594 65.984375 65.546875 65.019531 C 66.289062 64.058594 66.929688 63.046875 67.414062 62.070312 C 67.898438 61.09375 68.226562 60.152344 68.351562 59.328125 C 68.609375 57.59375 68.675781 56 68.644531 54.484375 C 68.609375 52.972656 68.476562 51.539062 68.335938 50.121094 C 68.199219 48.707031 68.054688 47.308594 67.992188 45.867188 C 67.929688 44.425781 67.953125 42.9375 68.148438 41.34375 C 68.316406 40.011719 68.492188 38.757812 68.660156 37.523438 C 68.824219 36.285156 68.980469 35.0625 69.09375 33.792969 C 69.203125 32.523438 69.277344 31.203125 69.277344 29.773438 C 69.28125 28.34375 69.214844 26.800781 69.046875 25.082031 C 68.941406 23.960938 68.75 22.742188 68.460938 21.507812 C 68.171875 20.273438 67.785156 19.019531 67.277344 17.820312 C 66.773438 16.625 66.152344 15.484375 65.398438 14.480469 C 64.640625 13.476562 63.753906 12.605469 62.714844 11.949219 C 61.402344 11.113281 60.175781 10.390625 58.984375 9.78125 C 57.792969 9.171875 56.628906 8.675781 55.441406 8.300781 C 54.253906 7.921875 53.042969 7.660156 51.75 7.519531 C 50.457031 7.378906 49.085938 7.359375 47.578125 7.464844 C 45.195312 7.628906 42.800781 7.8125 40.46875 8.101562 C 38.132812 8.386719 35.855469 8.777344 33.707031 9.359375 C 31.558594 9.9375 29.539062 10.707031 27.71875 11.746094 C 25.898438 12.785156 24.277344 14.09375 22.933594 15.753906 C 21.699219 17.273438 20.875 19.039062 20.339844 20.945312 C 19.808594 22.847656 19.5625 24.886719 19.492188 26.953125 C 19.421875 29.019531 19.519531 31.109375 19.679688 33.128906 C 19.84375 35.148438 20.0625 37.089844 20.25 38.855469 C 20.289062 39.214844 20.324219 39.566406 20.359375 39.917969 C 20.390625 40.269531 20.425781 40.617188 20.453125 40.960938 C 20.484375 41.308594 20.515625 41.648438 20.539062 41.988281 C 20.566406 42.324219 20.59375 42.664062 20.617188 42.996094 C 20.691406 44.019531 20.753906 45.023438 20.808594 46.003906 C 20.863281 46.984375 20.90625 47.949219 20.949219 48.894531 C 20.992188 49.84375 21.03125 50.777344 21.070312 51.699219 C 21.113281 52.625 21.152344 53.539062 21.199219 54.445312 Z M 21.199219 54.445312 "/>
</g>
<filter id="alpha" filterUnits="objectBoundingBox" x="0%" y="0%" width="100%" height="100%">
  <feColorMatrix type="matrix" in="SourceGraphic" values="0 0 0 0 1 0 0 0 0 1 0 0 0 0 1 0 0 0 1 0"/>
</filter>
<mask id="mask0">
  <g filter="url(#alpha)">
<rect x="0" y="0" width="90" height="81" style="fill:rgb(0%,0%,0%);fill-opacity:0.0588235;stroke:none;"/>
  </g>
</mask>
<clipPath id="clip4">
  <rect x="0" y="0" width="90" height="81"/>
</clipPath>
<g id="surface10" clip-path="url(#clip4)">
<path style="fill-rule:nonzero;fill:rgb(0%,0%,0%);fill-opacity:1;stroke-width:0.494975;stroke-linecap:round;stroke-linejoin:miter;stroke:rgb(61.56863%,61.56863%,61.56863%);stroke-opacity:1;stroke-miterlimit:4;" d="M 337.453224 25.014174 C 328.055692 25.061326 324.06886 26.263704 316.712206 31.2854 C 309.474208 36.212791 302.070092 48.189418 303.304111 52.928201 C 303.826196 54.861436 301.120846 54.814284 299.74444 52.881049 C 299.507129 52.527408 299.056237 52.173768 298.439227 51.796551 C 326.441974 74.783186 360.092733 129.526742 353.210702 166.541118 C 338.283814 246.746793 366.144174 353.546236 316.7834 387.519304 C 230.141002 447.143099 188.872547 424.557257 142.834132 411.543285 C 121.120138 405.413515 103.416706 384.265811 94.209023 367.432521 C 101.328366 390.419156 114.807654 408.784889 133.460331 420.785091 C 150.095862 431.488611 173.162531 438.349238 201.687363 441.084058 C 212.508764 442.121403 241.484488 441.390546 253.302596 439.787376 C 284.509047 435.567265 317.400409 425.123081 333.561317 414.278105 C 340.751853 409.468594 353.448013 396.690382 359.262143 388.438769 C 364.60165 380.847286 371.009058 368.163378 372.456658 362.269369 C 375.517975 349.77407 375.731555 328.697094 373.097398 300.122939 C 370.581897 272.869041 370.890402 257.308857 374.450074 231.823162 C 375.850211 221.897651 377.369004 209.803145 377.867358 204.946481 C 379.030184 193.53568 379.030184 164.678612 377.867358 153.314962 C 374.59246 121.62877 365.076273 97.086116 349.983267 81.408052 C 343.219891 74.40597 340.134843 72.378431 336.670096 72.614191 C 334.558025 72.779223 333.917284 72.567039 333.917284 71.718302 C 333.917284 71.105325 334.320713 70.586652 334.819067 70.586652 C 335.341152 70.586652 337.310837 68.983481 339.256791 67.003094 C 341.179013 65.022707 344.833609 61.934247 347.34911 60.142468 C 353.946367 55.497989 355.061731 54.389915 357.031416 50.523445 C 361.872569 40.975151 358.645133 31.474008 348.867903 26.617345 C 345.996435 25.179206 344.572566 24.990598 337.453224 25.014174 Z M 336.195473 39.631317 C 338.307545 39.513436 340.158574 40.079261 341.653636 41.305215 C 343.528396 42.908386 343.81317 43.592091 343.81317 46.633399 C 343.81317 51.32503 342.36557 54.507795 339.399178 56.346726 C 336.219205 58.303537 335.08011 58.279961 337.714266 56.299574 C 342.057065 53.069657 342.935118 46.963464 339.565295 43.592091 C 337.666804 41.706008 337.097257 41.517399 334.819067 41.941768 C 331.781481 42.507593 327.462413 44.60586 324.187516 47.10492 C 320.722769 49.745436 320.675307 48.519482 324.116322 45.572478 C 328.482852 41.847464 332.683264 39.819925 336.195473 39.631317 Z M 336.195473 39.631317 " transform="matrix(0.164604,0,0,0.165687,6.832625,0)"/>
</g>
<clipPath id="clip6">
  <rect x="0" y="0" width="90" height="81"/>
</clipPath>
<g id="surface14" clip-path="url(#clip6)">
<path style="fill-rule:evenodd;fill:rgb(0%,0%,0%);fill-opacity:1;stroke-width:0.9375;stroke-linecap:butt;stroke-linejoin:miter;stroke:rgb(0%,0%,0%);stroke-opacity:1;stroke-miterlimit:4;" d="M 301.564707 436.045954 C 301.564707 436.045954 287.728771 439.090034 286.082695 439.797959 C 284.458863 440.505885 277.362941 445.29618 277.362941 445.29618 L 277.25172 457.024145 L 290.553793 460.705357 C 290.553793 460.705357 298.87315 453.791285 298.984371 453.55531 C 299.095593 453.319335 306.236003 443.903927 306.236003 443.903927 C 307.637392 437.933756 304.790126 436.777477 301.564707 436.045954 Z M 301.564707 436.045954 " transform="matrix(0.175607,0,0,0.165537,2.402495,-18.185429)"/>
</g>
<clipPath id="clip7">
  <rect x="0" y="0" width="90" height="81"/>
</clipPath>
<g id="surface17" clip-path="url(#clip7)">
<path style="fill-rule:evenodd;fill:rgb(0%,0%,0%);fill-opacity:1;stroke-width:0.9375;stroke-linecap:butt;stroke-linejoin:miter;stroke:rgb(0%,0%,0%);stroke-opacity:1;stroke-miterlimit:4;" d="M 277.585384 445.532155 L 279.298192 445.886118 L 281.322421 444.163499 L 285.081703 445.414168 L 287.417351 448.599832 L 290.709503 449.685318 L 290.553793 460.587369 " transform="matrix(0.175607,0,0,0.165537,2.402495,-18.185429)"/>
</g>
<clipPath id="clip8">
  <rect x="0" y="0" width="90" height="81"/>
</clipPath>
<g id="surface20" clip-path="url(#clip8)">
<path style="fill-rule:evenodd;fill:rgb(0%,0%,0%);fill-opacity:1;stroke-width:0.46875;stroke-linecap:round;stroke-linejoin:miter;stroke:rgb(0%,0%,0%);stroke-opacity:1;stroke-miterlimit:4;" d="M 285.103947 445.272582 L 292.711487 443.125209 " transform="matrix(0.175607,0,0,0.165537,2.402495,-18.185429)"/>
</g>
<clipPath id="clip9">
  <rect x="0" y="0" width="90" height="81"/>
</clipPath>
<g id="surface23" clip-path="url(#clip9)">
<path style="fill-rule:evenodd;fill:rgb(0%,0%,0%);fill-opacity:1;stroke-width:0.46875;stroke-linecap:round;stroke-linejoin:miter;stroke:rgb(0%,0%,0%);stroke-opacity:1;stroke-miterlimit:4;" d="M 281.322421 443.951122 L 288.707519 441.614968 " transform="matrix(0.175607,0,0,0.165537,2.402495,-18.185429)"/>
</g>
<clipPath id="clip10">
  <rect x="0" y="0" width="90" height="81"/>
</clipPath>
<g id="surface26" clip-path="url(#clip10)">
<path style="fill-rule:evenodd;fill:rgb(0%,0%,0%);fill-opacity:1;stroke-width:0.777898;stroke-linecap:butt;stroke-linejoin:miter;stroke:rgb(0%,0%,0%);stroke-opacity:1;stroke-miterlimit:4;" d="M 246.888136 320.091878 L 246.108148 320.10044 L 246.117286 321.076189 L 246.897274 321.067627 Z M 246.888136 320.091878 " transform="matrix(0.139685,0.0465182,-0.0493482,0.131674,31.461781,4.410282)"/>
<path style="fill-rule:evenodd;fill:rgb(0%,0%,0%);fill-opacity:1;stroke-width:0.777898;stroke-linecap:butt;stroke-linejoin:miter;stroke:rgb(0%,0%,0%);stroke-opacity:1;stroke-miterlimit:4;" d="M 247.919833 320.083389 L 247.139845 320.091951 L 247.148983 321.067701 L 247.928971 321.059138 Z M 247.919833 320.083389 " transform="matrix(0.139685,0.0465182,-0.0493482,0.131674,31.461781,4.410282)"/>
<path style="fill-rule:evenodd;fill:rgb(0%,0%,0%);fill-opacity:1;stroke-width:0.777898;stroke-linecap:butt;stroke-linejoin:miter;stroke:rgb(0%,0%,0%);stroke-opacity:1;stroke-miterlimit:4;" d="M 248.901806 320.092467 L 248.121818 320.101029 L 248.130956 321.076779 L 248.910944 321.068216 Z M 248.901806 320.092467 " transform="matrix(0.139685,0.0465182,-0.0493482,0.131674,31.461781,4.410282)"/>
<path style="fill-rule:evenodd;fill:rgb(0%,0%,0%);fill-opacity:1;stroke-width:0.777898;stroke-linecap:butt;stroke-linejoin:miter;stroke:rgb(0%,0%,0%);stroke-opacity:1;stroke-miterlimit:4;" d="M 249.908641 320.092762 L 249.128653 320.101324 L 249.162653 321.06829 L 249.917779 321.068511 Z M 249.908641 320.092762 " transform="matrix(0.139685,0.0465182,-0.0493482,0.131674,31.461781,4.410282)"/>
<path style="fill-rule:evenodd;fill:rgb(0%,0%,0%);fill-opacity:1;stroke-width:0.777898;stroke-linecap:butt;stroke-linejoin:miter;stroke:rgb(0%,0%,0%);stroke-opacity:1;stroke-miterlimit:4;" d="M 250.940337 320.084273 L 250.185211 320.084052 L 250.203667 321.086176 L 250.974337 321.051239 Z M 250.940337 320.084273 " transform="matrix(0.139685,0.0465182,-0.0493482,0.131674,31.461781,4.410282)"/>
<path style="fill-rule:evenodd;fill:rgb(0%,0%,0%);fill-opacity:1;stroke-width:0.777898;stroke-linecap:butt;stroke-linejoin:miter;stroke:rgb(0%,0%,0%);stroke-opacity:1;stroke-miterlimit:4;" d="M 251.981351 320.102159 L 251.226225 320.101938 L 251.235364 321.077687 L 252.015351 321.069125 Z M 251.981351 320.102159 " transform="matrix(0.139685,0.0465182,-0.0493482,0.131674,31.461781,4.410282)"/>
<path style="fill-rule:evenodd;fill:rgb(0%,0%,0%);fill-opacity:1;stroke-width:0.777898;stroke-linecap:butt;stroke-linejoin:miter;stroke:rgb(0%,0%,0%);stroke-opacity:1;stroke-miterlimit:4;" d="M 252.978869 320.076079 L 252.198881 320.084642 L 252.217337 321.086765 L 252.997325 321.078203 Z M 252.978869 320.076079 " transform="matrix(0.139685,0.0465182,-0.0493482,0.131674,31.461781,4.410282)"/>
<path style="fill-rule:evenodd;fill:rgb(0%,0%,0%);fill-opacity:1;stroke-width:0.777898;stroke-linecap:butt;stroke-linejoin:miter;stroke:rgb(0%,0%,0%);stroke-opacity:1;stroke-miterlimit:4;" d="M 253.985703 320.076374 L 253.215033 320.111311 L 253.224171 321.08706 L 254.004159 321.078498 Z M 253.985703 320.076374 " transform="matrix(0.139685,0.0465182,-0.0493482,0.131674,31.461781,4.410282)"/>
</g>
<clipPath id="clip11">
  <rect x="0" y="0" width="90" height="81"/>
</clipPath>
<g id="surface29" clip-path="url(#clip11)">
<path style="fill-rule:evenodd;fill:rgb(0%,0%,0%);fill-opacity:1;stroke-width:0.9375;stroke-linecap:butt;stroke-linejoin:miter;stroke:rgb(0%,0%,0%);stroke-opacity:1;stroke-miterlimit:4;" d="M 243.493295 314.824215 L 243.826959 320.110058 L 245.161615 320.558411 L 245.606501 320.015668 L 253.058331 322.75298 L 253.325262 323.69688 L 254.637674 324.168831 L 264.536374 317.207564 L 264.603107 310.671052 L 253.480972 306.942645 L 244.116135 312.818426 L 244.160623 314.39946 Z M 243.493295 314.824215 " transform="matrix(0.175607,0,0,0.165537,6.822899,4.939788)"/>
</g>
<clipPath id="clip12">
  <rect x="0" y="0" width="90" height="81"/>
</clipPath>
<g id="surface32" clip-path="url(#clip12)">
<path style="fill-rule:evenodd;fill:rgb(0%,0%,0%);fill-opacity:1;stroke-width:0.9375;stroke-linecap:butt;stroke-linejoin:miter;stroke:rgb(0%,0%,0%);stroke-opacity:1;stroke-miterlimit:4;" d="M 244.071646 314.352265 L 254.815628 318.788597 L 264.536374 312.322878 " transform="matrix(0.175607,0,0,0.165537,6.822899,4.939788)"/>
</g>
<clipPath id="clip13">
  <rect x="0" y="0" width="90" height="81"/>
</clipPath>
<g id="surface35" clip-path="url(#clip13)">
<path style="fill-rule:evenodd;fill:rgb(0%,0%,0%);fill-opacity:1;stroke-width:0.9375;stroke-linecap:butt;stroke-linejoin:miter;stroke:rgb(0%,0%,0%);stroke-opacity:1;stroke-miterlimit:4;" d="M 254.682163 318.599817 L 254.192789 319.61451 L 254.481964 324.168831 " transform="matrix(0.175607,0,0,0.165537,6.822899,4.939788)"/>
</g>
<clipPath id="clip14">
  <rect x="0" y="0" width="90" height="81"/>
</clipPath>
<g id="surface38" clip-path="url(#clip14)">
<path style="fill-rule:evenodd;fill:rgb(0%,0%,0%);fill-opacity:1;stroke-width:0.9375;stroke-linecap:butt;stroke-linejoin:miter;stroke:rgb(0%,0%,0%);stroke-opacity:1;stroke-miterlimit:4;" d="M 246.474027 313.148791 L 249.921889 310.41148 L 250.922881 308.382094 L 252.457736 308.736056 L 256.394972 305.691977 L 258.619399 306.399902 L 255.349491 309.750749 L 257.084544 310.41148 L 257.262498 311.874526 L 252.435492 315.107385 " transform="matrix(0.175607,0,0,0.165537,6.822899,4.939788)"/>
</g>
<clipPath id="clip5">
  <rect x="0" y="0" width="90" height="81"/>
</clipPath>
<g id="surface40" clip-path="url(#clip5)">
<use xlink:href="#surface14"/>
<use xlink:href="#surface17"/>
<use xlink:href="#surface20"/>
<use xlink:href="#surface23"/>
<use xlink:href="#surface26"/>
<use xlink:href="#surface29"/>
<use xlink:href="#surface32"/>
<use xlink:href="#surface35"/>
<use xlink:href="#surface38"/>
</g>
<clipPath id="clip3">
  <rect x="0" y="0" width="90" height="81"/>
</clipPath>
<g id="surface43" clip-path="url(#clip3)">
<path style="fill-rule:nonzero;fill:rgb(90.588236%,90.588236%,90.588236%);fill-opacity:1;stroke-width:0.494975;stroke-linecap:round;stroke-linejoin:miter;stroke:rgb(61.56863%,61.56863%,61.56863%);stroke-opacity:1;stroke-miterlimit:4;" d="M 204.511369 441.390546 C 174.444013 438.702878 150.428098 431.747948 133.578987 420.879395 C 108.922331 404.941995 94.375141 380.045701 89.296677 344.940983 C 88.466087 339.259158 87.445648 325.537905 86.781176 311.015067 C 85.167458 275.297373 83.791052 254.149668 81.773905 234.652286 C 80.800928 225.103992 79.519447 212.702997 78.949899 207.068324 C 77.431106 192.073965 76.861559 163.287625 77.881998 152.230465 C 80.872122 120.002023 91.195168 98.477102 111.746337 81.667389 C 118.367325 76.268477 128.927683 69.737915 130.446476 70.138707 C 132.39243 70.633804 132.677204 69.266394 131.016024 67.545343 C 130.185434 66.696606 127.907244 63.608145 125.961291 60.684717 C 124.015337 57.784864 120.859095 53.517602 118.960604 51.20715 C 114.997503 46.468367 113.573635 41.729584 114.356762 35.929879 C 116.326447 21.713529 134.979124 17.257658 150.451829 27.324626 C 160.893531 34.114524 167.846755 46.374063 166.826316 56.228846 C 166.446618 59.835979 166.517812 59.977436 168.131529 59.977436 C 169.982558 59.977436 171.525082 57.879168 170.884342 56.20527 C 170.385988 54.908588 170.789417 54.767132 182.251558 52.621712 C 192.835647 50.641325 209.257597 48.519482 227.506845 46.774855 C 245.091621 45.100957 271.907811 45.077381 280.545947 46.727703 C 290.679144 48.660938 298.557883 51.183574 299.720709 52.857473 C 300.290256 53.659058 301.334427 54.319187 302.046361 54.319187 C 303.043069 54.319187 303.327842 53.753362 303.327842 51.655095 C 303.327842 45.761086 309.901369 35.811999 316.878324 31.16752 C 323.23827 26.900257 328.22181 25.226359 335.815775 24.80199 C 346.494789 24.212589 354.041292 27.631114 357.52977 34.656773 C 359.665572 38.947612 359.879153 42.861233 358.241704 47.765049 C 356.627986 52.57456 354.515915 55.07362 348.250893 59.482339 C 345.237038 61.627758 341.179013 64.999131 339.256791 66.979518 C 337.310837 68.959905 335.341152 70.586652 334.819067 70.586652 C 334.320713 70.586652 333.917284 71.105325 333.917284 71.718302 C 333.917284 72.567039 334.558025 72.779223 336.670096 72.614191 C 340.134843 72.378431 343.219891 74.40597 349.983267 81.408052 C 373.358441 105.667793 383.32552 152.183312 377.345273 209.166592 C 376.775725 214.801264 375.304395 226.259218 374.117838 234.62871 C 370.937865 257.025945 370.676822 273.788506 373.097398 300.122939 C 375.731555 328.697094 375.517975 349.77407 372.432927 362.269369 C 371.009058 368.163378 364.60165 380.847286 359.262143 388.438769 C 353.5904 396.478198 340.111112 410.057994 333.324005 414.537441 C 317.139367 425.217386 284.224273 435.614418 253.302596 439.810952 C 243.454172 441.13121 212.841 442.144979 204.511369 441.390546 Z M 339.399178 56.346726 C 342.36557 54.507795 343.81317 51.32503 343.81317 46.633399 C 343.81317 43.592091 343.528396 42.908386 341.653636 41.305215 C 337.714266 38.00457 332.232373 39.230524 324.851988 45.100957 C 320.841425 48.260146 320.248146 50.099077 324.187516 47.10492 C 327.462413 44.60586 331.781481 42.507593 334.819067 41.941768 C 337.097257 41.517399 337.666804 41.706008 339.565295 43.592091 C 342.935118 46.963464 342.057065 53.069657 337.714266 56.299574 C 335.08011 58.279961 336.219205 58.303537 339.399178 56.346726 Z M 131.727958 52.975353 C 128.761565 48.802395 130.375283 41.140183 134.504502 39.843501 C 137.399701 38.924035 144.020689 43.167722 147.722747 48.307298 C 148.553337 49.4861 149.478852 50.216957 149.763626 49.934044 C 150.617947 49.061731 144.258001 41.493823 140.91191 39.348404 C 134.551964 35.316902 128.975146 37.485897 128.334405 44.25222 C 127.883513 48.920275 128.381867 50.829934 130.707519 53.163961 C 133.151827 55.615869 133.555256 55.545141 131.727958 52.975353 Z M 131.727958 52.975353 " transform="matrix(0.164604,0,0,0.165687,6.832625,0)"/>
<use xlink:href="#surface10"/>
<use xlink:href="#surface40"/>
<path style=" stroke:none;fill-rule:nonzero;fill:rgb(0%,0%,0%);fill-opacity:1;" d="M 48.386719 39.515625 C 48.386719 38.140625 46.222656 37.023438 43.554688 37.023438 C 40.886719 37.023438 38.722656 38.140625 38.722656 39.515625 C 38.722656 40.890625 40.886719 42.003906 43.554688 42.003906 C 46.222656 42.003906 48.386719 40.890625 48.386719 39.515625 Z M 48.386719 39.515625 "/>
<path style=" stroke:none;fill-rule:nonzero;fill:rgb(0%,0%,0%);fill-opacity:1;" d="M 42.695312 40.953125 L 44.382812 40.953125 C 45.066406 40.953125 45.617188 41.507812 45.617188 42.195312 L 45.617188 42.402344 C 45.617188 43.085938 45.066406 43.644531 44.382812 43.644531 L 42.695312 43.644531 C 42.015625 43.644531 41.460938 43.085938 41.460938 42.402344 L 41.460938 42.195312 C 41.460938 41.507812 42.015625 40.953125 42.695312 40.953125 Z M 42.695312 40.953125 "/>
</g>
<clipPath id="clip15">
  <rect x="0" y="0" width="90" height="81"/>
</clipPath>
<g id="surface46" clip-path="url(#clip15)">
<path style="fill:none;stroke-width:0.9375;stroke-linecap:butt;stroke-linejoin:miter;stroke:rgb(39.215687%,39.215687%,39.215687%);stroke-opacity:1;stroke-miterlimit:4;" d="M 277.593939 445.531353 L 279.284783 445.884993 L 281.331594 444.183098 L 285.091497 445.42084 L 287.405283 448.603605 L 290.720227 449.686629 L 290.542243 460.583178 " transform="matrix(0.175578,0,0,0.176733,2.412952,-24.68937)"/>
</g>
<clipPath id="clip16">
  <rect x="0" y="0" width="90" height="81"/>
</clipPath>
<g id="surface49" clip-path="url(#clip16)">
<path style="fill:none;stroke-width:0.46875;stroke-linecap:round;stroke-linejoin:miter;stroke:rgb(39.215687%,39.215687%,39.215687%);stroke-opacity:1;stroke-miterlimit:4;" d="M 285.091497 445.266122 L 292.700294 443.122177 " transform="matrix(0.175578,0,0,0.176733,2.412952,-24.68937)"/>
</g>
<clipPath id="clip17">
  <rect x="0" y="0" width="90" height="81"/>
</clipPath>
<g id="surface52" clip-path="url(#clip17)">
<path style="fill:none;stroke-width:0.46875;stroke-linecap:round;stroke-linejoin:miter;stroke:rgb(39.215687%,39.215687%,39.215687%);stroke-opacity:1;stroke-miterlimit:4;" d="M 281.331594 443.962073 L 288.695664 441.619204 " transform="matrix(0.175578,0,0,0.176733,2.412952,-24.68937)"/>
</g>
<clipPath id="clip18">
  <rect x="0" y="0" width="90" height="81"/>
</clipPath>
<g id="surface55" clip-path="url(#clip18)">
<path style=" stroke:none;fill-rule:evenodd;fill:rgb(78.431374%,53.333336%,14.509805%);fill-opacity:1;" d="M 50.152344 56.695312 L 50.042969 56.65625 L 49.996094 56.792969 L 50.105469 56.832031 Z M 50.152344 56.695312 "/>
<path style=" stroke:none;fill-rule:evenodd;fill:rgb(78.431374%,53.333336%,14.509805%);fill-opacity:1;" d="M 50.296875 56.746094 L 50.1875 56.707031 L 50.140625 56.847656 L 50.25 56.882812 Z M 50.296875 56.746094 "/>
<path style=" stroke:none;fill-rule:evenodd;fill:rgb(78.431374%,53.333336%,14.509805%);fill-opacity:1;" d="M 50.4375 56.792969 L 50.328125 56.757812 L 50.28125 56.894531 L 50.390625 56.933594 Z M 50.4375 56.792969 "/>
<path style=" stroke:none;fill-rule:evenodd;fill:rgb(78.431374%,53.333336%,14.509805%);fill-opacity:1;" d="M 50.578125 56.84375 L 50.46875 56.808594 L 50.421875 56.945312 L 50.53125 56.984375 Z M 50.578125 56.84375 "/>
<path style=" stroke:none;fill-rule:evenodd;fill:rgb(78.431374%,53.333336%,14.509805%);fill-opacity:1;" d="M 50.722656 56.894531 L 50.613281 56.859375 L 50.566406 56.996094 L 50.675781 57.035156 Z M 50.722656 56.894531 "/>
<path style=" stroke:none;fill-rule:evenodd;fill:rgb(78.431374%,53.333336%,14.509805%);fill-opacity:1;" d="M 50.867188 56.949219 L 50.757812 56.910156 L 50.710938 57.050781 L 50.820312 57.085938 Z M 50.867188 56.949219 "/>
<path style=" stroke:none;fill-rule:evenodd;fill:rgb(78.431374%,53.333336%,14.509805%);fill-opacity:1;" d="M 51.007812 56.996094 L 50.898438 56.960938 L 50.851562 57.097656 L 50.960938 57.136719 Z M 51.007812 56.996094 "/>
<path style=" stroke:none;fill-rule:evenodd;fill:rgb(78.431374%,53.333336%,14.509805%);fill-opacity:1;" d="M 51.148438 57.046875 L 51.039062 57.011719 L 50.992188 57.148438 L 51.101562 57.1875 Z M 51.148438 57.046875 "/>
</g>
<clipPath id="clip19">
  <rect x="0" y="0" width="90" height="81"/>
</clipPath>
<g id="surface58" clip-path="url(#clip19)">
<path style="fill-rule:evenodd;fill:rgb(90.588236%,90.588236%,90.588236%);fill-opacity:1;stroke-width:0.9375;stroke-linecap:butt;stroke-linejoin:miter;stroke:rgb(61.56863%,61.56863%,61.56863%);stroke-opacity:1;stroke-miterlimit:4;" d="M 243.500377 314.806388 L 243.834096 320.110997 L 245.146725 320.553047 L 245.591684 320.022586 L 253.066993 322.741198 L 253.333969 323.691607 L 254.646597 324.177863 L 264.524685 317.193462 L 264.613677 310.673215 L 253.489704 306.937886 L 244.123319 312.81716 L 244.167815 314.408543 Z M 243.500377 314.806388 " transform="matrix(0.175578,0,0,0.176733,6.832625,0)"/>
</g>
<clipPath id="clip20">
  <rect x="0" y="0" width="90" height="81"/>
</clipPath>
<g id="surface61" clip-path="url(#clip20)">
<path style="fill:none;stroke-width:0.9375;stroke-linecap:butt;stroke-linejoin:miter;stroke:rgb(61.56863%,61.56863%,61.56863%);stroke-opacity:1;stroke-miterlimit:4;" d="M 244.078824 314.364338 L 254.802333 318.784845 L 264.546933 312.330905 " transform="matrix(0.175578,0,0,0.176733,6.832625,0)"/>
</g>
<clipPath id="clip21">
  <rect x="0" y="0" width="90" height="81"/>
</clipPath>
<g id="surface64" clip-path="url(#clip21)">
<path style="fill:none;stroke-width:0.9375;stroke-linecap:butt;stroke-linejoin:miter;stroke:rgb(61.56863%,61.56863%,61.56863%);stroke-opacity:1;stroke-miterlimit:4;" d="M 254.668845 318.585922 L 254.179391 319.624741 L 254.468614 324.177863 " transform="matrix(0.175578,0,0,0.176733,6.832625,0)"/>
</g>
<clipPath id="clip22">
  <rect x="0" y="0" width="90" height="81"/>
</clipPath>
<g id="surface67" clip-path="url(#clip22)">
<path style="fill-rule:evenodd;fill:rgb(90.588236%,90.588236%,90.588236%);fill-opacity:1;stroke-width:0.9375;stroke-linecap:butt;stroke-linejoin:miter;stroke:rgb(61.56863%,61.56863%,61.56863%);stroke-opacity:1;stroke-miterlimit:4;" d="M 246.481602 313.148698 L 249.907785 310.430087 L 250.908943 308.396654 L 252.466299 308.750294 L 256.404185 305.700145 L 258.606732 306.407426 L 255.336284 309.767011 L 257.093871 310.430087 L 257.249607 311.866751 L 252.444051 315.093721 " transform="matrix(0.175578,0,0,0.176733,6.832625,0)"/>
</g>
<clipPath id="clip1">
  <rect x="0" y="0" width="90" height="81"/>
</clipPath>
<g id="surface69" clip-path="url(#clip1)">
<path style=" stroke:none;fill-rule:nonzero;fill:rgb(88.235295%,83.92157%,72.549021%);fill-opacity:1;" d="M 34.808594 71.023438 C 34.339844 70.9375 33.96875 70.964844 33.679688 71.085938 C 33.390625 71.207031 33.179688 71.417969 32.996094 71.691406 C 32.8125 71.960938 32.65625 72.289062 32.5 72.640625 C 32.34375 72.996094 32.191406 73.371094 32.039062 73.75 C 31.890625 74.128906 31.773438 74.496094 31.699219 74.839844 C 31.625 75.179688 31.589844 75.5 31.609375 75.777344 C 31.625 76.058594 31.699219 76.300781 31.855469 76.492188 C 32.007812 76.679688 32.246094 76.816406 32.582031 76.886719 C 32.917969 76.953125 33.191406 76.917969 33.40625 76.800781 C 33.621094 76.6875 33.777344 76.496094 33.898438 76.246094 C 34.015625 75.996094 34.097656 75.695312 34.183594 75.359375 C 34.269531 75.023438 34.371094 74.65625 34.523438 74.277344 C 34.679688 73.898438 34.917969 73.527344 35.144531 73.179688 C 35.371094 72.832031 35.582031 72.5 35.695312 72.207031 C 35.808594 71.914062 35.824219 71.660156 35.691406 71.457031 C 35.558594 71.253906 35.277344 71.109375 34.808594 71.023438 Z M 34.808594 71.023438 "/>
<path style=" stroke:none;fill-rule:nonzero;fill:rgb(22.352941%,27.450982%,33.333334%);fill-opacity:1;" d="M 35.960938 72.160156 C 35.878906 72.445312 35.71875 72.761719 35.53125 73.101562 C 35.320312 73.488281 35.074219 73.902344 34.894531 74.339844 C 34.714844 74.78125 34.589844 75.195312 34.472656 75.578125 C 34.355469 75.957031 34.234375 76.300781 34.070312 76.582031 C 33.90625 76.863281 33.695312 77.082031 33.429688 77.214844 C 33.164062 77.347656 32.84375 77.394531 32.472656 77.332031 C 32.101562 77.269531 31.828125 77.117188 31.636719 76.894531 C 31.449219 76.675781 31.34375 76.386719 31.300781 76.054688 C 31.257812 75.722656 31.277344 75.34375 31.34375 74.941406 C 31.414062 74.535156 31.535156 74.109375 31.703125 73.671875 C 31.875 73.234375 32.050781 72.820312 32.230469 72.441406 C 32.40625 72.066406 32.585938 71.726562 32.792969 71.453125 C 32.875 71.347656 32.960938 71.253906 33.050781 71.167969 C 33.238281 71 33.757812 71.136719 33.535156 71.265625 C 33.328125 71.386719 33.257812 71.546875 33.117188 71.761719 C 32.949219 72.023438 32.824219 72.359375 32.6875 72.683594 C 32.550781 73.007812 32.296875 73.3125 32.160156 73.652344 C 32.023438 73.988281 31.921875 74.316406 31.855469 74.628906 C 31.789062 74.941406 31.757812 75.238281 31.777344 75.5 C 31.792969 75.765625 31.863281 75.996094 32.003906 76.171875 C 32.144531 76.347656 32.363281 76.472656 32.664062 76.53125 C 32.960938 76.589844 33.199219 76.558594 33.375 76.449219 C 33.554688 76.339844 33.566406 76.035156 33.652344 75.804688 C 33.734375 75.574219 33.867188 75.292969 33.945312 74.996094 C 34.019531 74.699219 34.144531 74.511719 34.328125 74.183594 C 34.507812 73.859375 34.785156 73.539062 35.042969 73.207031 C 35.296875 72.875 35.503906 72.554688 35.613281 72.273438 C 35.628906 72.238281 35.640625 72.203125 35.652344 72.171875 C 35.679688 72.082031 35.699219 72 35.699219 71.917969 C 35.703125 71.828125 36.058594 71.800781 35.992188 72.039062 C 35.984375 72.078125 35.972656 72.121094 35.960938 72.160156 Z M 35.960938 72.160156 "/>
<path style=" stroke:none;fill-rule:nonzero;fill:rgb(88.235295%,83.92157%,72.549021%);fill-opacity:1;" d="M 56.964844 69.949219 C 57.433594 69.863281 57.800781 69.890625 58.089844 70.011719 C 58.378906 70.132812 58.59375 70.34375 58.773438 70.613281 C 58.957031 70.886719 59.113281 71.214844 59.269531 71.566406 C 59.429688 71.917969 59.582031 72.296875 59.730469 72.675781 C 59.882812 73.054688 59.996094 73.421875 60.070312 73.761719 C 60.144531 74.105469 60.179688 74.421875 60.164062 74.703125 C 60.144531 74.984375 60.070312 75.226562 59.917969 75.417969 C 59.761719 75.605469 59.527344 75.742188 59.1875 75.808594 C 58.851562 75.875 58.578125 75.839844 58.363281 75.726562 C 58.148438 75.613281 57.992188 75.417969 57.875 75.171875 C 57.757812 74.921875 57.675781 74.617188 57.585938 74.285156 C 57.5 73.949219 57.402344 73.582031 57.246094 73.203125 C 57.089844 72.820312 56.851562 72.453125 56.628906 72.105469 C 56.402344 71.757812 56.191406 71.425781 56.074219 71.132812 C 55.960938 70.839844 55.945312 70.582031 56.078125 70.382812 C 56.210938 70.179688 56.492188 70.035156 56.964844 69.949219 Z M 56.964844 69.949219 "/>
<path style=" stroke:none;fill-rule:nonzero;fill:rgb(22.352941%,27.450982%,33.333334%);fill-opacity:1;" d="M 55.808594 71.085938 C 55.890625 71.367188 56.050781 71.6875 56.238281 72.023438 C 56.453125 72.414062 56.699219 72.828125 56.878906 73.265625 C 57.054688 73.703125 57.179688 74.121094 57.300781 74.5 C 57.417969 74.882812 57.535156 75.226562 57.699219 75.507812 C 57.863281 75.789062 58.074219 76.007812 58.339844 76.140625 C 58.605469 76.273438 58.925781 76.320312 59.296875 76.257812 C 59.667969 76.191406 59.945312 76.039062 60.132812 75.820312 C 60.324219 75.597656 60.429688 75.3125 60.472656 74.980469 C 60.511719 74.644531 60.496094 74.265625 60.425781 73.863281 C 60.359375 73.460938 60.238281 73.035156 60.066406 72.597656 C 59.894531 72.160156 59.71875 71.746094 59.542969 71.367188 C 59.363281 70.988281 59.1875 70.652344 58.976562 70.375 C 58.898438 70.273438 58.8125 70.179688 58.71875 70.09375 C 58.535156 69.925781 58.011719 70.058594 58.238281 70.191406 C 58.445312 70.3125 58.511719 70.472656 58.652344 70.6875 C 58.824219 70.949219 58.945312 71.285156 59.082031 71.609375 C 59.222656 71.933594 59.476562 72.238281 59.609375 72.574219 C 59.746094 72.914062 59.847656 73.238281 59.914062 73.550781 C 59.980469 73.863281 60.011719 74.160156 59.996094 74.425781 C 59.976562 74.691406 59.910156 74.917969 59.769531 75.097656 C 59.625 75.273438 59.410156 75.394531 59.109375 75.457031 C 58.808594 75.515625 58.574219 75.480469 58.394531 75.375 C 58.21875 75.265625 58.203125 74.960938 58.121094 74.730469 C 58.035156 74.5 57.902344 74.21875 57.828125 73.921875 C 57.753906 73.625 57.625 73.4375 57.445312 73.109375 C 57.261719 72.785156 56.984375 72.464844 56.730469 72.132812 C 56.472656 71.800781 56.265625 71.480469 56.15625 71.199219 C 56.144531 71.164062 56.132812 71.128906 56.121094 71.09375 C 56.09375 71.007812 56.074219 70.921875 56.070312 70.84375 C 56.070312 70.753906 55.710938 70.726562 55.777344 70.964844 C 55.789062 71.003906 55.796875 71.042969 55.808594 71.085938 Z M 55.808594 71.085938 "/>
<use xlink:href="#surface6"/>
<path style=" stroke:none;fill-rule:nonzero;fill:rgb(58.823532%,83.92157%,100%);fill-opacity:1;" d="M 56.726562 7.902344 C 56.574219 8.503906 56.664062 9.113281 56.894531 9.652344 C 57.125 10.195312 57.484375 10.671875 57.898438 11.054688 C 58.308594 11.4375 58.777344 11.730469 59.324219 11.910156 C 59.867188 12.089844 60.550781 12.25 61.1875 12.160156 C 61.824219 12.066406 62.277344 11.714844 62.648438 11.339844 C 63.019531 10.964844 63.414062 10.503906 64.058594 10.078125 C 64.707031 9.652344 65.332031 9.214844 65.605469 8.742188 C 65.878906 8.273438 66.058594 7.785156 66.128906 7.292969 C 66.195312 6.800781 66.144531 6.351562 66 5.949219 C 65.851562 5.542969 65.609375 5.1875 65.285156 4.886719 C 64.960938 4.582031 64.558594 4.335938 64.089844 4.164062 C 63.621094 3.992188 63.085938 3.894531 62.488281 3.890625 C 61.890625 3.890625 61.289062 3.984375 60.703125 4.164062 C 60.117188 4.34375 59.550781 4.609375 59.035156 4.945312 C 58.519531 5.28125 58.058594 5.695312 57.703125 6.164062 C 57.34375 6.632812 56.882812 7.296875 56.726562 7.902344 Z M 56.726562 7.902344 "/>
<path style=" stroke:none;fill-rule:nonzero;fill:rgb(22.352941%,27.450982%,33.333334%);fill-opacity:1;" d="M 62.992188 3.601562 C 63.453125 3.652344 63.875 3.753906 64.261719 3.902344 C 64.773438 4.097656 65.214844 4.375 65.570312 4.710938 C 65.925781 5.046875 66.199219 5.441406 66.367188 5.882812 C 66.53125 6.324219 66.59375 6.816406 66.53125 7.351562 C 66.464844 7.886719 66.277344 8.417969 65.988281 8.929688 C 65.699219 9.441406 65.136719 9.925781 64.425781 10.371094 C 63.714844 10.8125 63.273438 11.304688 62.875 11.703125 C 62.476562 12.097656 62.632812 12 61.902344 12.003906 C 61.816406 12.003906 61.808594 11.757812 61.882812 11.746094 C 62.527344 11.632812 62.222656 11.554688 62.613281 11.257812 C 62.976562 10.890625 63.363281 10.441406 63.996094 10.027344 C 64.625 9.613281 65.238281 9.183594 65.503906 8.726562 C 65.773438 8.265625 65.953125 7.789062 66.019531 7.3125 C 66.085938 6.832031 66.039062 6.394531 65.894531 6 C 65.75 5.605469 65.511719 5.257812 65.195312 4.960938 C 64.882812 4.667969 64.488281 4.425781 64.027344 4.257812 C 63.796875 4.175781 63.550781 4.109375 63.289062 4.0625 C 63.027344 4.015625 62.75 3.992188 62.457031 3.988281 C 61.875 3.984375 61.285156 4.078125 60.714844 4.253906 C 60.144531 4.429688 59.585938 4.6875 59.085938 5.015625 C 58.582031 5.34375 58.132812 5.746094 57.785156 6.203125 C 57.433594 6.660156 56.984375 7.3125 56.832031 7.898438 C 56.707031 8.382812 56.5625 8.386719 56.742188 8.910156 C 56.777344 9.007812 56.28125 8.980469 56.183594 8.742188 C 56 8.296875 56.210938 8.304688 56.34375 7.84375 C 56.523438 7.21875 56.960938 6.488281 57.347656 5.980469 C 57.734375 5.472656 58.230469 5.03125 58.789062 4.671875 C 59.34375 4.308594 59.957031 4.027344 60.589844 3.839844 C 61.222656 3.652344 61.871094 3.558594 62.519531 3.574219 C 62.679688 3.578125 62.839844 3.585938 62.992188 3.601562 Z M 62.992188 3.601562 "/>
<path style=" stroke:none;fill-rule:evenodd;fill:rgb(22.352941%,27.450982%,33.333334%);fill-opacity:1;" d="M 62.757812 6.65625 C 62.996094 6.746094 63.207031 6.925781 63.339844 7.238281 C 63.4375 7.46875 63.449219 7.746094 63.386719 8.085938 C 63.34375 8.308594 63.269531 8.5625 63.164062 8.84375 C 63.125 8.945312 62.890625 9.152344 62.742188 9.25 C 62.5 9.40625 62.199219 9.582031 62.164062 9.539062 C 62.140625 9.507812 62.539062 9.359375 62.746094 9.148438 C 62.921875 8.96875 63 8.769531 63.0625 8.453125 C 63.15625 7.980469 63.117188 7.679688 63.019531 7.445312 C 62.875 7.101562 62.632812 6.949219 62.359375 6.898438 C 62.089844 6.847656 61.800781 6.90625 61.589844 6.976562 C 61.140625 7.125 60.546875 7.382812 59.894531 8.015625 C 59.773438 8.128906 59.691406 8.0625 59.8125 7.949219 C 60.496094 7.3125 61.089844 6.886719 61.617188 6.707031 C 61.859375 6.625 62.195312 6.546875 62.519531 6.59375 C 62.601562 6.605469 62.679688 6.625 62.757812 6.65625 Z M 62.757812 6.65625 "/>
<path style=" stroke:none;fill-rule:nonzero;fill:rgb(58.823532%,83.92157%,100%);fill-opacity:1;" d="M 34.464844 8.863281 C 34.46875 9.484375 34.238281 10.054688 33.886719 10.523438 C 33.53125 10.996094 33.070312 11.371094 32.582031 11.644531 C 32.089844 11.917969 31.566406 12.085938 30.992188 12.128906 C 30.421875 12.171875 29.71875 12.167969 29.121094 11.925781 C 28.523438 11.679688 28.171875 11.230469 27.898438 10.777344 C 27.628906 10.328125 27.355469 9.78125 26.828125 9.214844 C 26.300781 8.644531 25.796875 8.070312 25.644531 7.546875 C 25.492188 7.023438 25.429688 6.503906 25.480469 6.011719 C 25.53125 5.519531 25.6875 5.09375 25.925781 4.738281 C 26.164062 4.378906 26.484375 4.089844 26.871094 3.875 C 27.253906 3.660156 27.703125 3.519531 28.203125 3.464844 C 28.699219 3.410156 29.242188 3.441406 29.824219 3.582031 C 30.402344 3.722656 30.964844 3.960938 31.492188 4.277344 C 32.015625 4.589844 32.503906 4.984375 32.925781 5.4375 C 33.34375 5.890625 33.695312 6.398438 33.929688 6.941406 C 34.167969 7.480469 34.457031 8.238281 34.464844 8.863281 Z M 34.464844 8.863281 "/>
<path style=" stroke:none;fill-rule:nonzero;fill:rgb(22.352941%,27.450982%,33.333334%);fill-opacity:1;" d="M 29.402344 3.183594 C 28.941406 3.117188 28.507812 3.117188 28.097656 3.167969 C 27.554688 3.234375 27.058594 3.398438 26.632812 3.636719 C 26.207031 3.878906 25.851562 4.195312 25.585938 4.585938 C 25.316406 4.976562 25.140625 5.4375 25.078125 5.972656 C 25.011719 6.507812 25.066406 7.070312 25.226562 7.632812 C 25.386719 8.199219 25.816406 8.808594 26.402344 9.40625 C 26.988281 10.007812 27.296875 10.59375 27.59375 11.074219 C 27.886719 11.554688 27.757812 11.425781 28.464844 11.601562 C 28.546875 11.621094 28.613281 11.386719 28.546875 11.355469 C 27.945312 11.09375 28.261719 11.089844 27.953125 10.707031 C 27.6875 10.265625 27.417969 9.734375 26.902344 9.179688 C 26.390625 8.625 25.898438 8.0625 25.746094 7.550781 C 25.59375 7.042969 25.535156 6.535156 25.582031 6.054688 C 25.628906 5.574219 25.78125 5.160156 26.015625 4.8125 C 26.246094 4.464844 26.5625 4.179688 26.9375 3.972656 C 27.316406 3.761719 27.753906 3.625 28.238281 3.570312 C 28.484375 3.542969 28.738281 3.539062 29.003906 3.558594 C 29.269531 3.574219 29.542969 3.617188 29.828125 3.6875 C 30.394531 3.824219 30.945312 4.054688 31.457031 4.359375 C 31.972656 4.667969 32.449219 5.054688 32.859375 5.496094 C 33.269531 5.933594 33.613281 6.429688 33.84375 6.960938 C 34.070312 7.488281 34.355469 8.226562 34.363281 8.835938 C 34.371094 9.335938 34.511719 9.371094 34.210938 9.839844 C 34.152344 9.925781 34.640625 10.015625 34.792969 9.808594 C 35.078125 9.421875 34.871094 9.378906 34.851562 8.898438 C 34.824219 8.25 34.574219 7.433594 34.320312 6.847656 C 34.066406 6.265625 33.683594 5.714844 33.230469 5.230469 C 32.773438 4.746094 32.246094 4.324219 31.675781 3.992188 C 31.109375 3.65625 30.5 3.410156 29.867188 3.265625 C 29.710938 3.230469 29.554688 3.203125 29.402344 3.183594 Z M 29.402344 3.183594 "/>
<path style=" stroke:none;fill-rule:evenodd;fill:rgb(22.352941%,27.450982%,33.333334%);fill-opacity:1;" d="M 28.902344 6.203125 C 28.652344 6.234375 28.402344 6.355469 28.199219 6.628906 C 28.050781 6.828125 27.976562 7.09375 27.957031 7.4375 C 27.941406 7.667969 27.957031 7.929688 27.992188 8.230469 C 28.003906 8.335938 28.183594 8.59375 28.304688 8.726562 C 28.503906 8.933594 28.753906 9.179688 28.796875 9.144531 C 28.824219 9.121094 28.472656 8.882812 28.324219 8.625 C 28.195312 8.410156 28.167969 8.195312 28.183594 7.875 C 28.203125 7.394531 28.3125 7.109375 28.464844 6.90625 C 28.683594 6.609375 28.957031 6.519531 29.234375 6.535156 C 29.507812 6.550781 29.777344 6.679688 29.964844 6.796875 C 30.363281 7.046875 30.878906 7.441406 31.363281 8.210938 C 31.453125 8.351562 31.546875 8.304688 31.457031 8.167969 C 30.945312 7.386719 30.46875 6.828125 30 6.527344 C 29.785156 6.390625 29.476562 6.234375 29.152344 6.203125 C 29.070312 6.191406 28.988281 6.191406 28.902344 6.203125 Z M 28.902344 6.203125 "/>
<use xlink:href="#surface43" mask="url(#mask0)"/>
<path style=" stroke:none;fill-rule:nonzero;fill:rgb(22.352941%,27.450982%,33.333334%);fill-opacity:1;" d="M 72.074219 25.871094 C 72.023438 27.484375 71.625 29.042969 70.945312 30.488281 C 70.265625 31.933594 69.304688 33.265625 68.144531 34.421875 C 66.980469 35.578125 65.613281 36.554688 64.113281 37.273438 C 62.613281 37.992188 60.980469 38.453125 59.28125 38.570312 C 57.582031 38.683594 55.976562 38.441406 54.523438 37.894531 C 53.070312 37.347656 51.773438 36.496094 50.691406 35.402344 C 49.609375 34.3125 48.746094 32.976562 48.164062 31.480469 C 47.585938 29.980469 47.285156 28.316406 47.335938 26.5625 C 47.382812 24.8125 47.773438 23.144531 48.4375 21.636719 C 49.097656 20.128906 50.03125 18.785156 51.167969 17.675781 C 52.304688 16.5625 53.648438 15.683594 55.128906 15.089844 C 56.609375 14.496094 58.230469 14.1875 59.929688 14.210938 C 61.628906 14.234375 63.246094 14.585938 64.71875 15.1875 C 66.191406 15.792969 67.511719 16.648438 68.621094 17.691406 C 69.726562 18.738281 70.613281 19.980469 71.210938 21.359375 C 71.8125 22.738281 72.121094 24.257812 72.074219 25.871094 Z M 72.074219 25.871094 "/>
<path style=" stroke:none;fill-rule:nonzero;fill:rgb(100%,100%,100%);fill-opacity:1;" d="M 71.234375 25.5 C 71.234375 27.019531 70.910156 28.511719 70.3125 29.910156 C 69.714844 31.3125 68.847656 32.621094 67.773438 33.765625 C 66.699219 34.90625 65.417969 35.878906 63.996094 36.59375 C 62.578125 37.308594 61.019531 37.761719 59.394531 37.878906 C 57.773438 37.992188 56.238281 37.757812 54.851562 37.230469 C 53.464844 36.703125 52.226562 35.886719 51.195312 34.847656 C 50.164062 33.808594 49.339844 32.550781 48.78125 31.136719 C 48.222656 29.726562 47.933594 28.167969 47.964844 26.535156 C 48 24.902344 48.355469 23.351562 48.96875 21.957031 C 49.578125 20.566406 50.449219 19.328125 51.507812 18.300781 C 52.566406 17.273438 53.816406 16.460938 55.199219 15.902344 C 56.582031 15.34375 58.09375 15.042969 59.683594 15.035156 C 61.269531 15.027344 62.78125 15.3125 64.160156 15.828125 C 65.539062 16.339844 66.785156 17.085938 67.832031 18.015625 C 68.878906 18.945312 69.730469 20.058594 70.320312 21.316406 C 70.90625 22.578125 71.234375 23.984375 71.234375 25.5 Z M 71.234375 25.5 "/>
<path style=" stroke:none;fill-rule:nonzero;fill:rgb(22.352941%,26.666668%,33.333334%);fill-opacity:1;" d="M 66.066406 24.984375 C 66.066406 23.121094 64.570312 21.617188 62.722656 21.617188 C 60.875 21.617188 59.375 23.121094 59.375 24.984375 C 59.375 26.84375 60.875 28.347656 62.722656 28.347656 C 64.570312 28.347656 66.066406 26.84375 66.066406 24.984375 Z M 66.066406 24.984375 "/>
<path style=" stroke:none;fill-rule:nonzero;fill:rgb(100%,100%,100%);fill-opacity:1;" d="M 62.886719 23.4375 C 62.886719 22.523438 62.148438 21.78125 61.242188 21.78125 C 60.332031 21.78125 59.597656 22.523438 59.597656 23.4375 C 59.597656 24.351562 60.332031 25.09375 61.242188 25.09375 C 62.148438 25.09375 62.886719 24.351562 62.886719 23.4375 Z M 62.886719 23.4375 "/>
<path style=" stroke:none;fill-rule:nonzero;fill:rgb(22.352941%,27.450982%,33.333334%);fill-opacity:1;" d="M 38.816406 25.53125 C 38.765625 27.144531 38.367188 28.703125 37.6875 30.148438 C 37.007812 31.59375 36.046875 32.925781 34.886719 34.082031 C 33.722656 35.238281 32.355469 36.214844 30.855469 36.933594 C 29.355469 37.652344 27.722656 38.113281 26.023438 38.230469 C 24.324219 38.34375 22.71875 38.101562 21.265625 37.554688 C 19.8125 37.007812 18.515625 36.15625 17.433594 35.0625 C 16.351562 33.972656 15.488281 32.636719 14.90625 31.140625 C 14.328125 29.640625 14.03125 27.972656 14.078125 26.222656 C 14.128906 24.472656 14.515625 22.804688 15.179688 21.296875 C 15.839844 19.789062 16.773438 18.445312 17.914062 17.335938 C 19.050781 16.222656 20.390625 15.34375 21.871094 14.75 C 23.351562 14.15625 24.972656 13.847656 26.671875 13.871094 C 28.371094 13.894531 29.992188 14.246094 31.460938 14.847656 C 32.933594 15.453125 34.257812 16.304688 35.363281 17.351562 C 36.46875 18.398438 37.355469 19.640625 37.953125 21.019531 C 38.554688 22.398438 38.863281 23.917969 38.816406 25.53125 Z M 38.816406 25.53125 "/>
<path style=" stroke:none;fill-rule:nonzero;fill:rgb(100%,100%,100%);fill-opacity:1;" d="M 37.980469 25.160156 C 37.980469 26.679688 37.652344 28.171875 37.054688 29.570312 C 36.457031 30.972656 35.589844 32.28125 34.515625 33.425781 C 33.441406 34.566406 32.160156 35.539062 30.738281 36.253906 C 29.320312 36.96875 27.761719 37.421875 26.140625 37.539062 C 24.515625 37.652344 22.980469 37.417969 21.59375 36.890625 C 20.207031 36.363281 18.96875 35.546875 17.9375 34.507812 C 16.90625 33.46875 16.082031 32.210938 15.523438 30.796875 C 14.96875 29.386719 14.675781 27.824219 14.707031 26.191406 C 14.742188 24.558594 15.097656 23.011719 15.710938 21.617188 C 16.324219 20.226562 17.191406 18.988281 18.25 17.960938 C 19.308594 16.933594 20.5625 16.121094 21.941406 15.5625 C 23.324219 15.003906 24.835938 14.703125 26.425781 14.695312 C 28.011719 14.6875 29.527344 14.972656 30.90625 15.488281 C 32.285156 16 33.527344 16.746094 34.574219 17.675781 C 35.625 18.605469 36.472656 19.71875 37.0625 20.976562 C 37.652344 22.238281 37.976562 23.644531 37.980469 25.160156 Z M 37.980469 25.160156 "/>
<path style=" stroke:none;fill-rule:nonzero;fill:rgb(22.352941%,26.666668%,33.333334%);fill-opacity:1;" d="M 25.589844 25.101562 C 25.589844 23.242188 24.089844 21.734375 22.246094 21.734375 C 20.398438 21.734375 18.898438 23.242188 18.898438 25.101562 C 18.898438 26.960938 20.398438 28.46875 22.246094 28.46875 C 24.089844 28.46875 25.589844 26.960938 25.589844 25.101562 Z M 25.589844 25.101562 "/>
<path style=" stroke:none;fill-rule:nonzero;fill:rgb(100%,100%,100%);fill-opacity:1;" d="M 22.410156 23.558594 C 22.410156 22.644531 21.671875 21.902344 20.765625 21.902344 C 19.855469 21.902344 19.117188 22.644531 19.117188 23.558594 C 19.117188 24.472656 19.855469 25.214844 20.765625 25.214844 C 21.671875 25.214844 22.410156 24.472656 22.410156 23.558594 Z M 22.410156 23.558594 "/>
<path style=" stroke:none;fill-rule:nonzero;fill:rgb(18.039216%,20.392157%,21.176471%);fill-opacity:1;" d="M 42.675781 39.140625 L 43.792969 39.15625 L 44.449219 39.140625 C 44.65625 39.136719 44.828125 39.234375 44.941406 39.382812 C 45.054688 39.527344 45.09375 39.730469 45.089844 39.953125 L 45.089844 41.203125 L 45.15625 42.460938 C 45.167969 42.6875 45.082031 42.886719 44.953125 43.03125 C 44.820312 43.175781 44.640625 43.257812 44.445312 43.265625 L 43.785156 43.28125 L 42.488281 43.25 C 42.238281 43.242188 42.023438 43.144531 41.875 42.996094 C 41.726562 42.847656 41.652344 42.640625 41.664062 42.421875 L 41.730469 41.171875 L 41.816406 39.929688 C 41.832031 39.707031 41.960938 39.507812 42.117188 39.367188 C 42.277344 39.222656 42.476562 39.136719 42.679688 39.140625 Z M 42.675781 39.140625 "/>
<path style=" stroke:none;fill-rule:nonzero;fill:rgb(100%,100%,100%);fill-opacity:1;" d="M 42.828125 39.519531 L 43.738281 39.53125 L 44.175781 39.511719 C 44.339844 39.507812 44.480469 39.589844 44.578125 39.710938 C 44.675781 39.828125 44.71875 39.996094 44.726562 40.175781 L 44.753906 41.199219 L 44.828125 42.226562 C 44.839844 42.410156 44.777344 42.574219 44.675781 42.695312 C 44.570312 42.8125 44.425781 42.878906 44.261719 42.882812 L 43.8125 42.902344 L 42.78125 42.878906 C 42.585938 42.875 42.414062 42.796875 42.289062 42.671875 C 42.167969 42.550781 42.101562 42.382812 42.105469 42.203125 L 42.121094 41.183594 L 42.15625 40.164062 C 42.164062 39.984375 42.257812 39.820312 42.378906 39.703125 C 42.503906 39.585938 42.664062 39.515625 42.828125 39.519531 Z M 42.828125 39.519531 "/>
<path style=" stroke:none;fill-rule:nonzero;fill:rgb(22.352941%,27.450982%,33.333334%);fill-opacity:1;" d="M 48.550781 38.621094 C 48.519531 39.023438 48.273438 39.386719 47.925781 39.710938 C 47.574219 40.039062 47.09375 40.328125 46.535156 40.566406 C 45.976562 40.804688 45.34375 40.988281 44.707031 41.085938 C 44.070312 41.183594 43.421875 41.191406 42.785156 41.117188 C 42.152344 41.039062 41.582031 40.886719 41.085938 40.695312 C 40.59375 40.503906 40.179688 40.28125 39.851562 40.03125 C 39.523438 39.78125 39.28125 39.503906 39.128906 39.195312 C 38.976562 38.886719 38.914062 38.546875 38.96875 38.179688 C 39.023438 37.808594 39.195312 37.449219 39.460938 37.121094 C 39.726562 36.789062 40.082031 36.492188 40.5 36.242188 C 40.917969 35.992188 41.398438 35.792969 41.925781 35.660156 C 42.457031 35.53125 43.035156 35.46875 43.671875 35.488281 C 44.304688 35.511719 44.9375 35.613281 45.539062 35.78125 C 46.140625 35.949219 46.707031 36.183594 47.179688 36.472656 C 47.652344 36.757812 48.039062 37.089844 48.265625 37.464844 C 48.496094 37.847656 48.578125 38.277344 48.550781 38.621094 Z M 48.550781 38.621094 "/>
<path style=" stroke:none;fill-rule:nonzero;fill:rgb(88.235295%,81.568629%,79.607844%);fill-opacity:1;" d="M 47.207031 38.53125 C 47.152344 38.851562 46.96875 39.148438 46.683594 39.414062 C 46.398438 39.679688 46.015625 39.917969 45.578125 40.105469 C 45.144531 40.292969 44.65625 40.433594 44.160156 40.507812 C 43.664062 40.582031 43.160156 40.585938 42.664062 40.527344 C 42.167969 40.464844 41.722656 40.34375 41.335938 40.191406 C 40.953125 40.035156 40.628906 39.847656 40.371094 39.636719 C 40.117188 39.425781 39.929688 39.195312 39.820312 38.941406 C 39.710938 38.6875 39.679688 38.414062 39.734375 38.125 C 39.792969 37.832031 39.9375 37.554688 40.148438 37.300781 C 40.359375 37.042969 40.636719 36.8125 40.964844 36.625 C 41.292969 36.433594 41.671875 36.28125 42.085938 36.183594 C 42.503906 36.085938 42.957031 36.042969 43.449219 36.0625 C 43.945312 36.085938 44.429688 36.167969 44.886719 36.300781 C 45.347656 36.433594 45.777344 36.617188 46.144531 36.84375 C 46.507812 37.066406 46.804688 37.328125 46.992188 37.613281 C 47.179688 37.902344 47.261719 38.210938 47.207031 38.53125 Z M 47.207031 38.53125 "/>
<path style=" stroke:none;fill-rule:nonzero;fill:rgb(22.352941%,27.450982%,33.333334%);fill-opacity:1;" d="M 46.105469 36.476562 C 46.027344 36.703125 45.851562 36.90625 45.613281 37.078125 C 45.375 37.25 45.070312 37.390625 44.742188 37.496094 C 44.410156 37.605469 44.054688 37.679688 43.710938 37.71875 C 43.363281 37.757812 43.023438 37.765625 42.707031 37.730469 C 42.386719 37.695312 42.117188 37.621094 41.890625 37.519531 C 41.664062 37.421875 41.480469 37.292969 41.332031 37.140625 C 41.1875 36.992188 41.078125 36.816406 41.015625 36.625 C 40.953125 36.429688 40.9375 36.21875 40.980469 35.996094 C 41.019531 35.769531 41.121094 35.554688 41.269531 35.363281 C 41.417969 35.167969 41.617188 34.996094 41.859375 34.855469 C 42.097656 34.714844 42.382812 34.605469 42.695312 34.542969 C 43.007812 34.476562 43.351562 34.457031 43.71875 34.492188 C 44.082031 34.523438 44.429688 34.605469 44.742188 34.726562 C 45.058594 34.847656 45.339844 35.003906 45.566406 35.1875 C 45.796875 35.367188 45.96875 35.574219 46.066406 35.796875 C 46.164062 36.015625 46.183594 36.246094 46.105469 36.476562 Z M 46.105469 36.476562 "/>
<use xlink:href="#surface46"/>
<use xlink:href="#surface49"/>
<use xlink:href="#surface52"/>
<use xlink:href="#surface55"/>
<use xlink:href="#surface58"/>
<use xlink:href="#surface61"/>
<use xlink:href="#surface64"/>
<use xlink:href="#surface67"/>
<path style=" stroke:none;fill-rule:nonzero;fill:rgb(98.431373%,78.039217%,7.058824%);fill-opacity:1;" d="M 43.097656 45.410156 L 35.339844 44.695312 L 29.246094 41.921875 L 36.171875 41.921875 L 43.097656 45.40625 "/>
<path style=" stroke:none;fill-rule:nonzero;fill:rgb(98.431373%,78.039217%,7.058824%);fill-opacity:1;" d="M 43.097656 45.410156 L 51.324219 44.449219 L 56.949219 41.921875 L 50.023438 41.921875 L 43.097656 45.40625 "/>
<path style=" stroke:none;fill-rule:nonzero;fill:rgb(96.470588%,52.941179%,12.156863%);fill-opacity:1;" d="M 43.097656 66.320312 L 50.023438 67.152344 L 56.949219 69.808594 L 50.023438 69.808594 L 43.097656 66.316406 "/>
<path style=" stroke:none;fill-rule:nonzero;fill:rgb(94.509804%,36.862746%,13.333334%);fill-opacity:1;" d="M 43.097656 66.320312 L 36.171875 67.070312 L 29.246094 69.808594 L 36.171875 69.808594 L 43.097656 66.316406 "/>
<path style=" stroke:none;fill-rule:nonzero;fill:rgb(98.823529%,93.333334%,13.725491%);fill-opacity:1;" d="M 32.710938 55.867188 L 31.6875 64.050781 L 29.246094 69.808594 L 29.246094 62.835938 L 32.710938 55.863281 "/>
<path style=" stroke:none;fill-rule:nonzero;fill:rgb(98.823529%,93.333334%,13.725491%);fill-opacity:1;" d="M 32.710938 55.867188 L 31.933594 48.371094 L 29.246094 41.921875 L 29.246094 48.894531 L 32.710938 55.863281 "/>
<path style=" stroke:none;fill-rule:nonzero;fill:rgb(94.117647%,28.627452%,13.725491%);fill-opacity:1;" d="M 53.488281 55.867188 L 54.488281 48.289062 L 56.949219 41.921875 L 56.949219 48.894531 L 53.488281 55.863281 "/>
<path style=" stroke:none;fill-rule:nonzero;fill:rgb(94.117647%,28.627452%,13.725491%);fill-opacity:1;" d="M 53.488281 55.867188 L 54.164062 63.558594 L 56.949219 69.808594 L 56.949219 62.835938 L 53.488281 55.863281 "/>
<path style=" stroke:none;fill-rule:nonzero;fill:rgb(97.254902%,69.803923%,9.411765%);fill-opacity:1;" d="M 29.246094 41.921875 L 43.097656 45.410156 L 43.097656 55.859375 L 32.710938 55.859375 L 29.246094 41.929688 "/>
<path style=" stroke:none;fill-rule:nonzero;fill:rgb(97.254902%,61.56863%,10.980392%);fill-opacity:1;" d="M 29.246094 69.808594 L 32.710938 55.867188 L 43.097656 55.859375 L 43.097656 66.3125 L 29.246094 69.792969 "/>
<path style=" stroke:none;fill-rule:nonzero;fill:rgb(95.294118%,45.09804%,12.941177%);fill-opacity:1;" d="M 56.949219 41.921875 L 53.488281 55.863281 L 43.097656 55.859375 L 43.097656 45.40625 L 56.949219 41.929688 "/>
<path style=" stroke:none;fill-rule:nonzero;fill:rgb(94.509804%,36.862746%,13.333334%);fill-opacity:1;" d="M 56.949219 69.808594 L 43.097656 66.320312 L 43.097656 55.859375 L 53.488281 55.867188 L 56.949219 69.792969 "/>
<path style=" stroke:none;fill-rule:nonzero;fill:rgb(96.470588%,52.941179%,12.156863%);fill-opacity:1;" d="M 43.097656 45.410156 L 32.710938 55.867188 L 43.097656 66.320312 L 53.488281 55.863281 L 43.097656 45.40625 "/>
<path style=" stroke:none;fill-rule:nonzero;fill:rgb(88.235295%,83.92157%,72.549021%);fill-opacity:1;" d="M 28.265625 55.929688 C 28.015625 56.339844 27.910156 56.695312 27.917969 57.011719 C 27.925781 57.328125 28.046875 57.601562 28.230469 57.871094 C 28.414062 58.140625 28.664062 58.40625 28.933594 58.679688 C 29.203125 58.957031 29.496094 59.234375 29.792969 59.511719 C 30.089844 59.792969 30.390625 60.03125 30.679688 60.222656 C 30.96875 60.417969 31.25 60.566406 31.515625 60.652344 C 31.785156 60.734375 32.035156 60.753906 32.265625 60.675781 C 32.496094 60.601562 32.710938 60.425781 32.894531 60.136719 C 33.078125 59.84375 33.144531 59.574219 33.113281 59.332031 C 33.085938 59.089844 32.964844 58.871094 32.777344 58.671875 C 32.589844 58.46875 32.335938 58.285156 32.058594 58.082031 C 31.777344 57.878906 31.476562 57.652344 31.179688 57.371094 C 30.882812 57.085938 30.628906 56.730469 30.386719 56.394531 C 30.144531 56.054688 29.914062 55.738281 29.683594 55.523438 C 29.453125 55.3125 29.222656 55.203125 28.988281 55.257812 C 28.753906 55.308594 28.515625 55.519531 28.265625 55.929688 Z M 28.265625 55.929688 "/>
<path style=" stroke:none;fill-rule:nonzero;fill:rgb(22.352941%,27.450982%,33.333334%);fill-opacity:1;" d="M 29.738281 55.257812 C 29.96875 55.4375 30.207031 55.703125 30.453125 56 C 30.734375 56.339844 31.03125 56.722656 31.371094 57.046875 C 31.710938 57.375 32.054688 57.640625 32.363281 57.890625 C 32.671875 58.136719 32.949219 58.371094 33.148438 58.628906 C 33.351562 58.882812 33.480469 59.160156 33.507812 59.457031 C 33.53125 59.753906 33.460938 60.074219 33.269531 60.398438 C 33.074219 60.726562 32.835938 60.925781 32.5625 61.027344 C 32.289062 61.125 31.984375 61.121094 31.660156 61.039062 C 31.335938 60.957031 30.992188 60.804688 30.644531 60.59375 C 30.296875 60.386719 29.945312 60.117188 29.601562 59.800781 C 29.257812 59.480469 28.9375 59.167969 28.652344 58.863281 C 28.363281 58.558594 28.113281 58.269531 27.9375 57.976562 C 27.867188 57.863281 27.8125 57.75 27.769531 57.632812 C 27.679688 57.398438 27.992188 56.957031 28.03125 57.214844 C 28.070312 57.453125 28.171875 57.667969 28.316406 57.882812 C 28.496094 58.140625 28.734375 58.394531 28.992188 58.660156 C 29.253906 58.925781 29.535156 59.195312 29.820312 59.460938 C 30.109375 59.726562 30.394531 59.960938 30.671875 60.144531 C 30.953125 60.332031 31.222656 60.472656 31.480469 60.554688 C 31.734375 60.636719 31.976562 60.652344 32.199219 60.582031 C 32.421875 60.507812 32.625 60.339844 32.800781 60.058594 C 32.980469 59.777344 33.042969 59.519531 33.015625 59.285156 C 32.988281 59.054688 32.871094 58.84375 32.6875 58.652344 C 32.507812 58.457031 32.265625 58.28125 32 58.082031 C 31.730469 57.886719 31.4375 57.671875 31.152344 57.398438 C 30.867188 57.128906 30.625 56.785156 30.390625 56.460938 C 30.160156 56.132812 29.9375 55.828125 29.714844 55.625 C 29.6875 55.601562 29.660156 55.574219 29.632812 55.554688 C 29.5625 55.496094 29.492188 55.449219 29.417969 55.417969 C 29.335938 55.382812 29.4375 55.035156 29.636719 55.183594 C 29.667969 55.207031 29.703125 55.230469 29.738281 55.257812 Z M 29.738281 55.257812 "/>
<path style=" stroke:none;fill-rule:nonzero;fill:rgb(88.235295%,83.92157%,72.549021%);fill-opacity:1;" d="M 58.398438 55.839844 C 58.636719 56.253906 58.734375 56.613281 58.71875 56.929688 C 58.703125 57.242188 58.574219 57.515625 58.382812 57.78125 C 58.191406 58.046875 57.9375 58.304688 57.660156 58.570312 C 57.382812 58.839844 57.082031 59.109375 56.777344 59.378906 C 56.472656 59.652344 56.167969 59.882812 55.875 60.070312 C 55.578125 60.253906 55.292969 60.394531 55.027344 60.472656 C 54.757812 60.550781 54.507812 60.5625 54.277344 60.480469 C 54.046875 60.394531 53.839844 60.21875 53.664062 59.921875 C 53.488281 59.625 53.429688 59.355469 53.464844 59.113281 C 53.496094 58.871094 53.625 58.65625 53.820312 58.460938 C 54.011719 58.265625 54.269531 58.085938 54.550781 57.890625 C 54.835938 57.695312 55.144531 57.476562 55.449219 57.203125 C 55.753906 56.925781 56.015625 56.578125 56.265625 56.246094 C 56.515625 55.914062 56.753906 55.601562 56.992188 55.398438 C 57.226562 55.191406 57.460938 55.089844 57.695312 55.148438 C 57.929688 55.207031 58.160156 55.421875 58.398438 55.839844 Z M 58.398438 55.839844 "/>
<path style=" stroke:none;fill-rule:nonzero;fill:rgb(22.352941%,27.450982%,33.333334%);fill-opacity:1;" d="M 56.945312 55.128906 C 56.707031 55.300781 56.464844 55.558594 56.210938 55.851562 C 55.921875 56.183594 55.617188 56.558594 55.265625 56.875 C 54.914062 57.191406 54.566406 57.449219 54.25 57.691406 C 53.933594 57.929688 53.65625 58.15625 53.445312 58.410156 C 53.238281 58.660156 53.101562 58.929688 53.070312 59.226562 C 53.035156 59.523438 53.097656 59.84375 53.28125 60.175781 C 53.464844 60.503906 53.703125 60.714844 53.972656 60.820312 C 54.242188 60.925781 54.546875 60.929688 54.871094 60.855469 C 55.199219 60.785156 55.546875 60.640625 55.898438 60.4375 C 56.253906 60.238281 56.613281 59.980469 56.964844 59.671875 C 57.316406 59.363281 57.644531 59.054688 57.9375 58.761719 C 58.230469 58.464844 58.488281 58.183594 58.675781 57.890625 C 58.746094 57.78125 58.804688 57.667969 58.851562 57.554688 C 58.949219 57.320312 58.644531 56.871094 58.597656 57.128906 C 58.554688 57.363281 58.449219 57.582031 58.296875 57.789062 C 58.113281 58.042969 57.867188 58.292969 57.601562 58.550781 C 57.335938 58.804688 57.042969 59.066406 56.75 59.328125 C 56.457031 59.585938 56.167969 59.8125 55.882812 59.988281 C 55.597656 60.167969 55.324219 60.304688 55.066406 60.378906 C 54.808594 60.453125 54.566406 60.464844 54.347656 60.382812 C 54.125 60.304688 53.925781 60.132812 53.757812 59.847656 C 53.585938 59.5625 53.53125 59.300781 53.5625 59.070312 C 53.597656 58.835938 53.722656 58.632812 53.90625 58.441406 C 54.089844 58.253906 54.339844 58.082031 54.613281 57.894531 C 54.882812 57.707031 55.183594 57.496094 55.472656 57.230469 C 55.765625 56.96875 56.019531 56.632812 56.261719 56.3125 C 56.5 55.992188 56.730469 55.695312 56.957031 55.496094 C 56.984375 55.472656 57.011719 55.449219 57.042969 55.425781 C 57.113281 55.371094 57.1875 55.324219 57.257812 55.296875 C 57.34375 55.261719 57.25 54.914062 57.046875 55.058594 C 57.015625 55.082031 56.980469 55.101562 56.945312 55.128906 Z M 56.945312 55.128906 "/>
</g>
</defs>
<g id="surface1">
<use xlink:href="#surface69"/>
</g>
</svg>
